<?xml version="1.0" encoding="utf-8"?>
<svg width="48" height="48" xmlns="http://www.w3.org/2000/svg">
  <defs/>
  <g fill="none" fill-rule="evenodd">
    <circle cx="23.739" cy="23.811" r="24" fill="#DFE6FB"/>
    <path d="M 22.32 37.997 L 22.32 26.257 C 21.894 25.997 21.552 25.661 21.292 25.247 C 21.032 24.833 20.901 24.354 20.901 23.811 C 20.901 23.03 21.179 22.362 21.735 21.806 C 22.29 21.251 22.958 20.973 23.738 20.973 C 24.519 20.973 25.187 21.251 25.743 21.806 C 26.298 22.362 26.576 23.03 26.576 23.811 C 26.576 24.354 26.446 24.839 26.186 25.265 C 25.926 25.69 25.583 26.021 25.157 26.257 L 25.157 37.997 L 22.32 37.997 Z M 13.95 34.096 C 12.602 32.795 11.532 31.264 10.74 29.503 C 9.948 27.741 9.552 25.844 9.552 23.811 C 9.552 21.848 9.924 20.003 10.669 18.278 C 11.414 16.552 12.425 15.05 13.701 13.773 C 14.979 12.496 16.48 11.486 18.206 10.741 C 19.932 9.996 21.776 9.624 23.738 9.624 C 25.701 9.624 27.546 9.996 29.271 10.741 C 30.997 11.486 32.499 12.496 33.776 13.773 C 35.053 15.05 36.063 16.552 36.808 18.278 C 37.553 20.003 37.925 21.848 37.925 23.811 C 37.925 25.844 37.529 27.747 36.737 29.52 C 35.945 31.294 34.875 32.819 33.527 34.096 L 31.542 32.109 C 32.629 31.069 33.492 29.834 34.13 28.403 C 34.769 26.973 35.088 25.442 35.088 23.811 C 35.088 20.642 33.988 17.959 31.79 15.759 C 29.591 13.561 26.907 12.461 23.738 12.461 C 20.571 12.461 17.886 13.561 15.688 15.759 C 13.489 17.959 12.39 20.642 12.39 23.811 C 12.39 25.442 12.708 26.967 13.347 28.385 C 13.985 29.804 14.86 31.034 15.971 32.074 L 13.95 34.096 Z M 17.958 30.088 C 17.13 29.307 16.468 28.38 15.971 27.304 C 15.475 26.228 15.227 25.064 15.227 23.811 C 15.227 21.446 16.054 19.437 17.709 17.781 C 19.365 16.126 21.374 15.298 23.738 15.298 C 26.103 15.298 28.112 16.126 29.768 17.781 C 31.423 19.437 32.251 21.446 32.251 23.811 C 32.251 25.064 32.003 26.234 31.506 27.322 C 31.009 28.409 30.347 29.331 29.519 30.088 L 27.498 28.067 C 28.089 27.523 28.556 26.885 28.899 26.151 C 29.242 25.418 29.413 24.638 29.413 23.811 C 29.413 22.25 28.857 20.914 27.746 19.803 C 26.635 18.692 25.299 18.136 23.738 18.136 C 22.178 18.136 20.842 18.692 19.731 19.803 C 18.62 20.914 18.064 22.25 18.064 23.811 C 18.064 24.661 18.236 25.448 18.578 26.169 C 18.921 26.89 19.388 27.523 19.979 28.067 L 17.958 30.088 Z" style="fill: rgb(114, 141, 219);"/>
  </g>
</svg>