<?xml version="1.0" encoding="utf-8"?>
<svg width="450" height="220" xmlns="http://www.w3.org/2000/svg">
  <defs>
    <path id="a" d="M0 0h450v220H0z"/>
  </defs>
  <g fill="none" fill-rule="evenodd">
    <mask id="b" fill="#fff">
      <path d="M0 0h450v220H0z"/>
    </mask>
    <path d="M0 0h450v220H0z" fill="#382AE1"/>
    <path fill="#1E1FCD" fill-rule="nonzero" d="M218.812 46v13.368h1.685v3.623h6.303v77.983l12.758 6.699v-12.891h3.046v14.545l2.984 1.543v112.908L31.9 266.214v-72.237h7.013V124.52h2.548v-9.55h3.045v9.55h14.15l-.001.014v.196c-.01 2.072-.088 19.036-.094 31.525v3.018c.003 5.998.028 10.37.094 10.445.066.075.784.104 1.747.108h.5c2.152-.008 5.071-.108 5.071-.108v36.439h5.786V76.399h7.379v-7.156h3.045V76.4h23.111v6.395h8.79v-13.55h3.045v13.55h4.314v23.771h10.353v42.63h12.18v38.692h6.384v-80.419h8.04V95.156h3.044v12.312h22.117V63.022h6.455v-3.654h25.75V46h3.046zM15.842 147.489v4.151h3.198L25.475 265.9H-8l6.445-114.259H.962v-4.151h14.88z" mask="url(#b)"/>
    <path fill="#1E1FCD" fill-rule="nonzero" d="M422.812 82v13.368h1.685v3.623h6.303v77.983l12.758 6.699v-12.891h3.046v14.545l2.984 1.543v112.908L235.9 302.214v-72.237h7.013V160.52h2.548v-9.55h3.045v9.55h14.15l-.001.014v.196c-.01 2.072-.088 19.036-.094 31.525v3.018c.003 5.998.028 10.37.094 10.445.066.075.784.104 1.747.108h.5c2.152-.008 5.071-.108 5.071-.108v36.439h5.786V112.399h7.379v-7.156h3.045v7.156h23.111v6.395h8.79v-13.55h3.045v13.55h4.314v23.771h10.353v42.63h12.18v38.692h6.384v-80.419h8.04v-12.312h3.044v12.312h22.117V99.022h6.455v-3.654h25.75V82h3.046zm-202.97 101.489v4.151h3.198l6.435 114.259H196l6.445-114.259h2.517v-4.151h14.88z" mask="url(#b)"/>
  </g>
</svg>